<svg xmlns="http://www.w3.org/2000/svg" xmlns:xlink="http://www.w3.org/1999/xlink" viewBox="0 0 91.76 115.99"><defs><style>.cls-1,.cls-7{fill:none;}.cls-2{fill:#b6b72d;}.cls-3{fill:#9b9823;}.cls-4{fill:#e5f4e5;}.cls-5{fill:#d8a62b;}.cls-6{clip-path:url(#clip-path);}.cls-7{stroke:#b15816;stroke-miterlimit:10;}.cls-8{clip-path:url(#clip-path-2);}</style><clipPath id="clip-path"><path class="cls-1" d="M37.5,51.54s-1.75-4.48.61-7.68S44,38.49,48.36,40.28,59,49.16,64,52.22s6.38,6.12,1.75,10.59-9,5.74-16.86,4.25S37.5,51.54,37.5,51.54Z"/></clipPath><clipPath id="clip-path-2"><path class="cls-1" d="M31,52.76s5.32-1.67,9.27,1.22,4.63,3.8,9.72,4.41,9,2.43,5.16,9.19S42.89,76.3,36.66,73.72,26,65.75,25.73,61.19A8.26,8.26,0,0,1,31,52.76Z"/></clipPath></defs><title>Single_Chips</title><g id="Layer_2" data-name="Layer 2"><g id="Layer_1-2" data-name="Layer 1"><path class="cls-2" d="M91.76,5.73V0H0V5.73S6.69,9.24,6.69,58,0,110.24,0,110.24V116H91.76v-5.73s-6.69-3.5-6.69-52.25S91.76,5.73,91.76,5.73Z"/><rect class="cls-3" width="91.76" height="5.73"/><rect class="cls-2" x="1.28" y="1.35" width="89.03" height="1.2"/><rect class="cls-2" x="1.28" y="3.04" width="89.03" height="1.2"/><rect class="cls-3" y="110.26" width="91.76" height="5.73"/><rect class="cls-2" x="1.28" y="111.61" width="89.03" height="1.2"/><rect class="cls-2" x="1.28" y="113.29" width="89.03" height="1.2"/><circle class="cls-4" cx="45.95" cy="57.99" r="32.35"/><path class="cls-5" d="M37.5,51.54s-1.75-4.48.61-7.68S44,38.49,48.36,40.28,59,49.16,64,52.22s6.38,6.12,1.75,10.59-9,5.74-16.86,4.25S37.5,51.54,37.5,51.54Z"/><g class="cls-6"><path class="cls-7" d="M50.59,39.86A19.61,19.61,0,0,0,53.93,45c1.49,1.45,3.1,2.77,4.57,4.25a14.7,14.7,0,0,0,3.6,2.49c1.06.57,1.77,1.36,2.78,2s1.67,1,2.5,1.55c.55.37,1.5,1,2.13.9"/><path class="cls-7" d="M48.59,39a23.29,23.29,0,0,0,3.7,6.09c1.65,1.7,3.43,3.26,5.05,5a16.28,16.28,0,0,0,4,2.93c1.17.67,2,1.6,3.07,2.31.95.61,1.84,1.17,2.76,1.82.61.43,1.66,1.17,2.36,1.05"/><path class="cls-7" d="M46.54,38.52c1.19,2.45,2.26,4.93,4.06,6.83S54.36,49,56.14,51a17.9,17.9,0,0,0,4.37,3.29c1.28.75,2.15,1.79,3.37,2.59,1,.68,2,1.31,3,2,.67.48,1.82,1.32,2.59,1.18"/><path class="cls-7" d="M44.8,38.72c1.21,2.55,2.29,5.12,4.12,7.09s3.82,3.8,5.64,5.82A18.23,18.23,0,0,0,59,55.05c1.3.78,2.18,1.86,3.43,2.69,1.06.71,2.06,1.36,3.08,2.12.68.5,1.85,1.37,2.63,1.23"/><path class="cls-7" d="M42.55,38.72c1.25,2.68,2.35,5.38,4.24,7.46s3.93,4,5.79,6.12a18.79,18.79,0,0,0,4.56,3.59c1.34.82,2.24,2,3.52,2.83,1.09.74,2.11,1.43,3.17,2.23.7.53,1.9,1.44,2.7,1.29"/><path class="cls-7" d="M41.9,39.86c1.25,2.68,2.35,5.38,4.24,7.46s3.93,4,5.79,6.12A18.79,18.79,0,0,0,56.49,57c1.34.82,2.24,2,3.52,2.83,1.09.74,2.11,1.43,3.17,2.23.7.53,1.9,1.44,2.7,1.29"/><path class="cls-7" d="M40.41,41.06c1.25,2.68,2.35,5.38,4.24,7.46s3.93,4,5.79,6.12A18.79,18.79,0,0,0,55,58.22c1.34.82,2.24,2,3.52,2.83,1.09.74,2.11,1.43,3.17,2.23.7.53,1.9,1.44,2.7,1.29"/><path class="cls-7" d="M39,42.31c1.25,2.68,2.35,5.38,4.24,7.46s3.93,4,5.79,6.12a18.79,18.79,0,0,0,4.56,3.59c1.34.82,2.24,2,3.52,2.83,1.09.74,2.11,1.43,3.17,2.23.7.53,1.9,1.44,2.7,1.29"/><path class="cls-7" d="M38,43.82c1.25,2.68,2.35,5.38,4.24,7.46s3.93,4,5.79,6.12A18.79,18.79,0,0,0,52.61,61c1.34.82,2.24,2,3.52,2.83,1.09.74,2.11,1.43,3.17,2.23.7.53,1.9,1.44,2.7,1.29"/><path class="cls-7" d="M35.91,44.24c1.28,2.66,2.43,5.35,4.34,7.4s4,3.94,5.88,6a18.79,18.79,0,0,0,4.61,3.52C52.08,62,53,63.12,54.29,64c1.1.73,2.13,1.4,3.2,2.19.7.52,1.92,1.41,2.72,1.25"/><path class="cls-7" d="M34.88,45.38c1.28,2.66,2.43,5.35,4.34,7.4s4,3.94,5.88,6a18.79,18.79,0,0,0,4.61,3.52c1.35.8,2.27,1.92,3.56,2.78,1.1.73,2.13,1.4,3.2,2.19.7.52,1.92,1.41,2.72,1.25"/><path class="cls-7" d="M34.09,46.1c1.28,2.66,2.43,5.35,4.34,7.4s4,3.94,5.88,6a18.79,18.79,0,0,0,4.61,3.52c1.35.8,2.27,1.92,3.56,2.78,1.1.73,2.13,1.4,3.2,2.19.7.52,1.92,1.41,2.72,1.25"/></g><path class="cls-5" d="M31,52.76s5.32-1.67,9.27,1.22,4.63,3.8,9.72,4.41,9,2.43,5.16,9.19S42.89,76.3,36.66,73.72,26,65.75,25.73,61.19A8.26,8.26,0,0,1,31,52.76Z"/><g class="cls-8"><path class="cls-7" d="M34.22,50.76a19.61,19.61,0,0,0,4.54,4.17c1.81,1,3.7,1.9,5.49,3a14.7,14.7,0,0,0,4.11,1.5c1.17.29,2.05.87,3.18,1.2,1,.28,1.86.54,2.81.87a3.92,3.92,0,0,0,2.29.33"/><path class="cls-7" d="M32.08,50.46a23.29,23.29,0,0,0,5.11,5c2,1.23,4.14,2.29,6.15,3.56a16.28,16.28,0,0,0,4.59,1.83c1.3.35,2.3,1.05,3.55,1.46,1.07.35,2.08.67,3.13,1.07.7.26,1.9.72,2.55.43"/><path class="cls-7" d="M30,50.48c1.77,2.07,3.43,4.2,5.65,5.59s4.56,2.59,6.78,4a17.9,17.9,0,0,0,5.05,2.08c1.43.4,2.53,1.19,3.92,1.66,1.18.4,2.29.76,3.45,1.21.77.3,2.09.82,2.8.49"/><path class="cls-7" d="M28.33,51.11c1.82,2.16,3.51,4.38,5.78,5.83s4.66,2.71,6.92,4.21a18.23,18.23,0,0,0,5.15,2.18c1.46.43,2.58,1.25,4,1.74,1.2.42,2.33.8,3.52,1.28.78.32,2.13.86,2.85.53"/><path class="cls-7" d="M26.15,51.68c1.88,2.28,3.64,4.61,6,6.15s4.81,2.87,7.15,4.46a18.79,18.79,0,0,0,5.32,2.32c1.5.46,2.66,1.33,4.12,1.85,1.24.45,2.41.85,3.63,1.36.81.34,2.2.91,2.94.57"/><path class="cls-7" d="M25.81,52.95c1.88,2.28,3.64,4.61,6,6.15S36.6,62,38.94,63.55a18.79,18.79,0,0,0,5.32,2.32c1.5.46,2.66,1.33,4.12,1.85,1.24.45,2.41.85,3.63,1.36.81.34,2.2.91,2.94.57"/><path class="cls-7" d="M24.67,54.49c1.88,2.28,3.64,4.61,6,6.15s4.81,2.87,7.15,4.46a18.79,18.79,0,0,0,5.32,2.32c1.5.46,2.66,1.33,4.12,1.85,1.24.45,2.41.85,3.63,1.36.81.34,2.2.91,2.94.57"/><path class="cls-7" d="M23.58,56.06c1.88,2.28,3.64,4.61,6,6.15s4.81,2.87,7.15,4.46A18.79,18.79,0,0,0,42,69c1.5.46,2.66,1.33,4.12,1.85,1.24.45,2.41.85,3.63,1.36.81.34,2.2.91,2.94.57"/><path class="cls-7" d="M23.06,57.76c1.88,2.28,3.64,4.61,6,6.15s4.81,2.87,7.15,4.46a18.79,18.79,0,0,0,5.32,2.32c1.5.46,2.66,1.33,4.12,1.85,1.24.45,2.41.85,3.63,1.36.81.34,2.2.91,2.94.57"/><path class="cls-7" d="M21.12,58.69c1.91,2.25,3.7,4.56,6.06,6.06s4.85,2.8,7.21,4.36a18.79,18.79,0,0,0,5.35,2.25c1.51.44,2.68,1.29,4.14,1.79,1.24.43,2.42.82,3.65,1.31.81.32,2.21.88,2.95.53"/><path class="cls-7" d="M20.41,60.06c1.91,2.25,3.7,4.56,6.06,6.06s4.85,2.8,7.21,4.36A18.79,18.79,0,0,0,39,72.73c1.51.44,2.68,1.29,4.14,1.79,1.24.43,2.42.82,3.65,1.31.81.32,2.21.88,2.95.53"/><path class="cls-7" d="M19.83,61c1.91,2.25,3.7,4.56,6.06,6.06s4.85,2.8,7.21,4.36a18.79,18.79,0,0,0,5.35,2.25c1.51.44,2.68,1.29,4.14,1.79,1.24.43,2.42.82,3.65,1.31.81.32,2.21.88,2.95.53"/></g></g></g></svg>