<svg xmlns="http://www.w3.org/2000/svg" viewBox="0 0 58.45 69.6"><defs><style>.cls-1{isolation:isolate;}.cls-2{fill:#75c287;}.cls-3{fill:#eb5c75;}.cls-4{fill:#eb3d52;}.cls-5{fill:#f0ab4a;}.cls-6{fill:#fff;}.cls-7{fill:#eb4a63;}.cls-8{fill:#f2adc4;opacity:0.86;mix-blend-mode:multiply;}</style></defs><title>Single_Cupcake</title><g class="cls-1"><g id="Layer_2" data-name="Layer 2"><g id="Layer_1-2" data-name="Layer 1"><path class="cls-2" d="M41.35,11.28a11.5,11.5,0,0,1-8.92,4.34,11.44,11.44,0,0,1,2.16-9.68,11.3,11.3,0,0,1,8.92-4.32A11.34,11.34,0,0,1,41.35,11.28Z"/><path class="cls-3" d="M36.43,9.74a13.93,13.93,0,0,1-.11,1.77.48.48,0,0,1,0,.19c0,.13,0,.27-.07.4a2,2,0,0,1-2,1.47h-10a2,2,0,0,1-2-1.55.87.87,0,0,1,0-.22A13.08,13.08,0,0,1,22,9.74C22,4.36,25.25,0,29.22,0S36.43,4.36,36.43,9.74Z"/><circle class="cls-4" cx="26.86" cy="4.64" r="1.78"/><circle class="cls-4" cx="32.87" cy="7.81" r="1.69"/><circle class="cls-4" cx="27.66" cy="10.48" r="1.25"/><path class="cls-5" d="M56.65,34.54a5.78,5.78,0,0,0-5.78-5.78H7.57A5.78,5.78,0,0,0,1.8,34.54h0a5.78,5.78,0,0,0,5.78,5.78h43.3a5.78,5.78,0,0,0,5.78-5.78Z"/><path class="cls-6" d="M53.78,24.67A5.18,5.18,0,0,0,48.6,19.5H9.84a5.17,5.17,0,0,0-5.17,5.17h0a5.17,5.17,0,0,0,5.17,5.18H48.6a5.18,5.18,0,0,0,5.18-5.18Z"/><path class="cls-6" d="M48.36,16.4a4,4,0,0,0-4-4H14.11a4,4,0,0,0-4,4h0a4,4,0,0,0,4,4H44.33a4,4,0,0,0,4-4Z"/><polygon class="cls-7" points="58.45 33.09 54.44 69.6 4.01 69.6 0 33.09 58.45 33.09"/><polygon class="cls-8" points="10.23 67.19 8.09 35.74 5.7 35.74 8.12 67.19 10.23 67.19"/><polygon class="cls-8" points="15.43 67.19 13.78 35.74 11.39 35.74 13.33 67.19 15.43 67.19"/></g></g></g></svg>