<svg xmlns="http://www.w3.org/2000/svg" viewBox="0 0 76.86 109.44"><defs><style>.cls-1{fill:#8c6196;}.cls-2{fill:#9e70a1;}.cls-3{fill:#82a63b;}</style></defs><title>Single_Grapes</title><g id="Layer_2" data-name="Layer 2"><g id="Layer_1-2" data-name="Layer 1"><path class="cls-1" d="M46.93,100.09c0,5.16-3.8,9.35-8.5,9.35s-8.51-4.19-8.51-9.35,3.81-9.36,8.51-9.36S46.93,94.92,46.93,100.09Z"/><path class="cls-2" d="M39.69,88.62c0,5.17-3.81,9.36-8.51,9.36s-8.5-4.19-8.5-9.36,3.81-9.35,8.5-9.35S39.69,83.46,39.69,88.62Z"/><ellipse class="cls-2" cx="46.15" cy="88.62" rx="8.51" ry="9.35"/><path class="cls-1" d="M32,76c0,5.17-3.8,9.36-8.5,9.36S15,81.16,15,76s3.81-9.36,8.51-9.36S32,70.83,32,76Z"/><path class="cls-1" d="M46.93,76c0,5.17-3.8,9.36-8.5,9.36S29.92,81.16,29.92,76s3.81-9.36,8.51-9.36S46.93,70.83,46.93,76Z"/><path class="cls-1" d="M61.9,76c0,5.17-3.81,9.36-8.51,9.36s-8.5-4.19-8.5-9.36,3.8-9.36,8.5-9.36S61.9,70.83,61.9,76Z"/><path class="cls-2" d="M24.73,64.53c0,5.16-3.81,9.35-8.51,9.35s-8.5-4.19-8.5-9.35,3.8-9.36,8.5-9.36S24.73,59.36,24.73,64.53Z"/><path class="cls-2" d="M39.69,64.53c0,5.16-3.81,9.35-8.51,9.35s-8.5-4.19-8.5-9.35,3.81-9.36,8.5-9.36S39.69,59.36,39.69,64.53Z"/><path class="cls-2" d="M54.65,64.53c0,5.16-3.81,9.35-8.5,9.35s-8.51-4.19-8.51-9.35,3.81-9.36,8.51-9.36S54.65,59.36,54.65,64.53Z"/><path class="cls-2" d="M69.62,64.53c0,5.16-3.81,9.35-8.51,9.35s-8.51-4.19-8.51-9.35,3.81-9.36,8.51-9.36S69.62,59.36,69.62,64.53Z"/><path class="cls-1" d="M17,51.9c0,5.16-3.81,9.35-8.51,9.35S0,57.06,0,51.9s3.81-9.36,8.5-9.36S17,46.72,17,51.9Z"/><path class="cls-1" d="M32,51.9c0,5.16-3.8,9.35-8.5,9.35S15,57.06,15,51.9s3.81-9.36,8.51-9.36S32,46.72,32,51.9Z"/><path class="cls-1" d="M46.93,51.9c0,5.16-3.8,9.35-8.5,9.35s-8.51-4.19-8.51-9.35,3.81-9.36,8.51-9.36S46.93,46.72,46.93,51.9Z"/><path class="cls-1" d="M61.9,51.9c0,5.16-3.81,9.35-8.51,9.35s-8.5-4.19-8.5-9.35,3.8-9.36,8.5-9.36S61.9,46.72,61.9,51.9Z"/><path class="cls-1" d="M76.86,51.9c0,5.16-3.81,9.35-8.5,9.35s-8.51-4.19-8.51-9.35,3.81-9.36,8.51-9.36S76.86,46.72,76.86,51.9Z"/><path class="cls-2" d="M24.73,40.58c0,5.17-3.81,9.36-8.51,9.36s-8.5-4.19-8.5-9.36,3.8-9.35,8.5-9.35S24.73,35.42,24.73,40.58Z"/><path class="cls-2" d="M39.69,40.58c0,5.17-3.81,9.36-8.51,9.36s-8.5-4.19-8.5-9.36,3.81-9.35,8.5-9.35S39.69,35.42,39.69,40.58Z"/><path class="cls-2" d="M54.65,40.58c0,5.17-3.81,9.36-8.5,9.36s-8.51-4.19-8.51-9.36,3.81-9.35,8.51-9.35S54.65,35.42,54.65,40.58Z"/><path class="cls-2" d="M69.62,40.58c0,5.17-3.81,9.36-8.51,9.36s-8.51-4.19-8.51-9.36,3.81-9.35,8.51-9.35S69.62,35.42,69.62,40.58Z"/><path class="cls-3" d="M50.21,17.32A14.52,14.52,0,0,0,46,18a16.21,16.21,0,0,0,.26-3A18.42,18.42,0,0,0,38.5,0a19.37,19.37,0,0,0-7.75,15.28A17,17,0,0,0,31,18.07a14.4,14.4,0,0,0-16.32,5.3,15.19,15.19,0,0,0,12,6.09h9.12V27.15A2.57,2.57,0,0,1,36.05,26a2.62,2.62,0,0,1,1.27-1.23,2.62,2.62,0,0,1,2.42.12,2.63,2.63,0,0,1,.54.42,2,2,0,0,1,.32.39,2.54,2.54,0,0,1,.45,1.48v2.31h9.39A14.49,14.49,0,0,0,62.2,23.4,15.22,15.22,0,0,0,50.21,17.32Z"/></g></g></svg>