<svg xmlns="http://www.w3.org/2000/svg" viewBox="0 0 82.81 147.07"><defs><style>.cls-1{fill:#fff;}.cls-2{fill:#ecf0f1;}.cls-3{fill:#4c9bc4;}.cls-4{fill:#77b9db;}</style></defs><title>Single_Milk</title><g id="Layer_2" data-name="Layer 2"><g id="Layer_1-2" data-name="Layer 1"><rect class="cls-1" y="36.22" width="82.81" height="110.85"/><path class="cls-1" d="M73.06,1.2A1.19,1.19,0,0,0,71.87,0H11.14A1.21,1.21,0,0,0,10,1.2V32.61a1.2,1.2,0,0,0,1.19,1.2H71.87a1.19,1.19,0,0,0,1.19-1.2V1.2Z"/><polygon class="cls-2" points="82.81 36.22 0 36.22 9.95 9.95 72.87 9.95 82.81 36.22"/><polygon class="cls-3" points="55.47 23.8 28.84 23.72 28.84 20.01 55.47 20.09 55.47 23.8"/><path class="cls-3" d="M55.47,23.47c0,3.07-6,5.57-13.32,5.57s-13.31-2.5-13.31-5.57,5.95-5.57,13.31-5.57S55.47,20.39,55.47,23.47Z"/><path class="cls-4" d="M55.47,20.28c0,3.07-6,5.57-13.32,5.57s-13.31-2.5-13.31-5.57,5.95-5.55,13.31-5.55S55.47,17.21,55.47,20.28Z"/><path class="cls-4" d="M82.81,55.55V36.22H0V55.55Z"/><rect class="cls-4" y="136.19" width="82.81" height="10.88"/><rect class="cls-4" y="131" width="82.81" height="2.56"/></g></g></svg>