<svg xmlns="http://www.w3.org/2000/svg" viewBox="0 0 77.44 77.96"><defs><style>.cls-1{isolation:isolate;}.cls-2{fill:#c7ab5d;}.cls-3{fill:#de382e;}.cls-4{fill:#91a63b;}.cls-5{fill:#d6e0bf;mix-blend-mode:multiply;}</style></defs><title>Single_Apple</title><g class="cls-1"><g id="Layer_2" data-name="Layer 2"><g id="Layer_1-2" data-name="Layer 1"><rect class="cls-2" x="28.56" y="8.54" width="11.29" height="4.4" transform="translate(23.42 44.94) rotate(-89.92)"/><path class="cls-3" d="M68.27,43.91A34.14,34.14,0,1,1,21.17,12.25a24,24,0,0,1,2.35-.85,9.74,9.74,0,0,1,2.38-.28,10.29,10.29,0,0,1,8.3,4.22,10.33,10.33,0,0,1,8.33-4.18,10.14,10.14,0,0,1,2.38.29,24.3,24.3,0,0,1,2.34.86,34.08,34.08,0,0,1,21,31.59Z"/><path class="cls-4" d="M33.94,11.07a27.82,27.82,0,0,0,22,11.17,26.5,26.5,0,0,0,21.54-11.1A27.82,27.82,0,0,0,55.49,0,26.56,26.56,0,0,0,33.94,11.07Z"/><path class="cls-5" d="M33.95,11.07a27.81,27.81,0,0,0,22,11.17A26.52,26.52,0,0,0,77.44,11.15l-15.11.11,3.61,5.24-6.58-5.37Z"/></g></g></g></svg>