<svg xmlns="http://www.w3.org/2000/svg" viewBox="0 0 82.95 99.22"><defs><style>.cls-1{isolation:isolate;}.cls-2{fill:#82a63b;}.cls-3{fill:#dbd9bf;}.cls-3,.cls-5{mix-blend-mode:multiply;}.cls-4{fill:#ed7a1f;}.cls-5{fill:#dec4a3;}.cls-6{fill:#ffad00;}</style></defs><title>Single_Orange</title><g class="cls-1"><g id="Layer_2" data-name="Layer 2"><g id="Layer_1-2" data-name="Layer 1"><path class="cls-2" d="M42.34,32.42a28,28,0,0,0,23.15-8.79A26.66,26.66,0,0,0,71.78.1,28,28,0,0,0,48.66,8.91,26.66,26.66,0,0,0,42.34,32.42Z"/><path class="cls-3" d="M42.34,32.41a27.94,27.94,0,0,0,23.15-8.78A26.67,26.67,0,0,0,71.79.11L61.66,11.43l6.33.85-8.44,1.27Z"/><path class="cls-4" d="M83,57.74A41.48,41.48,0,1,1,41.47,16.26,41.28,41.28,0,0,1,83,57.74Z"/><path class="cls-5" d="M76.57,79.85a41.38,41.38,0,0,1-27,18.57c-7.21-10.67-8.09-26.23-8.09-33.33Z"/><path class="cls-6" d="M20.11,40.49A3.1,3.1,0,1,1,17,37.4,3.1,3.1,0,0,1,20.11,40.49Z"/><path class="cls-6" d="M24.14,47.48a1.38,1.38,0,1,1-1.38-1.38A1.38,1.38,0,0,1,24.14,47.48Z"/><path class="cls-6" d="M30.87,27.5a2.12,2.12,0,1,1-2.12-2.12A2.11,2.11,0,0,1,30.87,27.5Z"/></g></g></g></svg>