<svg xmlns="http://www.w3.org/2000/svg" viewBox="0 0 78.26 64.93"><defs><style>.cls-1{fill:#d6a361;}.cls-2{fill:#be8d4a;}</style></defs><title>Single_Potato</title><g id="Layer_2" data-name="Layer 2"><g id="Layer_1-2" data-name="Layer 1"><path class="cls-1" d="M23.74,61c1,1.08.48,2.29-.63,3.1C38,66.86,56.36,62.69,67.81,52.62a36.39,36.39,0,0,0,7.39-8.76,1.06,1.06,0,0,1-1.06-1.2,2.2,2.2,0,0,1,2.66-2,23.54,23.54,0,0,0,1.45-9.48c-.06-6.69-3-12.12-6.83-16.3a1.55,1.55,0,0,1-1.29.91,2.16,2.16,0,0,1-1.94-1.6c-.18-.71.4-1.24,1.16-1.45-.68-.65-1.37-1.24-2-1.77A44.45,44.45,0,0,0,58.78,5.7c0,.85-.45,1.21-1.56,1.22A19.13,19.13,0,0,1,55,6.82c-.58-1.1-.3-1.74.86-2.19l.34-.13C44.68-.42,30.81-1.37,19.61,2a1.67,1.67,0,0,1-.08.73c-.45,1.64-2.46,1.49-3.88,1.36-.17,0-.25-.19-.32-.47-4.75,2.16-7.59,5-10.47,9.08C1.6,17.35.41,22.8.09,28.27c1.25-.12,2.79,1.71,2.14,2.86-.39.72-1.36.65-2.13.43A.33.33,0,0,0,0,31.5c0,.46,0,.91,0,1.38.07,6.94,1.79,14.65,5.28,20A23.63,23.63,0,0,0,18,62.73C18.29,60.55,22.25,59.42,23.74,61Z"/><path class="cls-2" d="M74.14,42.66a1.06,1.06,0,0,0,1.06,1.2,28.79,28.79,0,0,0,1.6-3.15A2.2,2.2,0,0,0,74.14,42.66Z"/><path class="cls-2" d="M2.23,31.13c.65-1.15-.89-3-2.14-2.86C0,29.35,0,30.43,0,31.5a.33.33,0,0,1,.11.06C.87,31.78,1.84,31.85,2.23,31.13Z"/><path class="cls-2" d="M68.19,14.25a2.16,2.16,0,0,0,1.94,1.6,1.55,1.55,0,0,0,1.29-.91c-.67-.77-1.38-1.48-2.07-2.13C68.59,13,68,13.54,68.19,14.25Z"/><path class="cls-2" d="M55,6.82a19.13,19.13,0,0,0,2.26.11c1.11,0,1.61-.38,1.56-1.22-.86-.43-1.73-.82-2.62-1.21l-.34.13C54.66,5.08,54.38,5.72,55,6.82Z"/><path class="cls-2" d="M15.65,4.06c1.42.12,3.43.28,3.88-1.36A1.67,1.67,0,0,0,19.61,2a40.92,40.92,0,0,0-4.28,1.62C15.4,3.87,15.48,4,15.65,4.06Z"/><path class="cls-2" d="M23.74,61c-1.49-1.58-5.44-.44-5.7,1.74A36.62,36.62,0,0,0,23.1,64.1C24.22,63.28,24.78,62.07,23.74,61Z"/><path class="cls-2" d="M54.76,37.33a4.08,4.08,0,0,0-.68,1.59c-.61,2.61,1.78,5.52,4.17,2.47C59.74,39.53,56.26,35.34,54.76,37.33Z"/><path class="cls-2" d="M23.79,49.54c1.64,2.11,6.46,2.16,4.87-.83-.65-1.21-2.29-1.39-3.54-1.45C23.5,47.23,22.42,47.76,23.79,49.54Z"/><path class="cls-2" d="M48.36,20a2.47,2.47,0,0,0,4-2.21c-.23-1.52-2.25-3.29-4-2.1A2.63,2.63,0,0,0,48.36,20Z"/><path class="cls-2" d="M14.26,24.69a5.91,5.91,0,0,0,1.14.91c2.62,1.64,3.6-1.06,2.14-2.79C15.66,20.54,12.07,22.36,14.26,24.69Z"/><path class="cls-2" d="M64,30.41c1.66.62,5.06-1.92,2-3.54-1.74-1-2.36-.39-2.71,1.06S63.31,30.15,64,30.41Z"/><path class="cls-2" d="M30.62,35.12c1.85,2.6,7.24.3,4.7-2.33a3.43,3.43,0,0,0-2.76-1C30.77,31.87,29.34,33.26,30.62,35.12Z"/><path class="cls-2" d="M56.48,55.57c1.52,1.86,5.48-.12,4-1.8S55,53.7,56.48,55.57Z"/><path class="cls-2" d="M38.34,57.69c1.09,2.33,6.59,1.58,4.42-1.62C41.22,53.83,37,54.93,38.34,57.69Z"/><path class="cls-2" d="M30.1,9.15c1-2.14,6.73-1.43,5.32,1.38a2.59,2.59,0,0,1-2.48,1.2C31.19,11.72,29.36,10.67,30.1,9.15Z"/><path class="cls-2" d="M9.77,37A2.16,2.16,0,0,1,13,36.48,2.07,2.07,0,0,1,13,39.87c-1.54,1.38-3.42,1-3.95-.11C8.66,39,9.18,37.94,9.77,37Z"/><path class="cls-2" d="M41.93,43.16c.63-1,2.29.1,1.21,1S41.35,44,41.93,43.16Z"/><path class="cls-2" d="M18.25,9.69c.63-1,2.28.3,1.21,1.15S17.68,10.55,18.25,9.69Z"/><path class="cls-2" d="M72.36,24.35c1.1-1.5,3.94.33,2.11,1.67S71.39,25.67,72.36,24.35Z"/><path class="cls-2" d="M11.72,46.81c.76-1.26,2.74.13,1.48,1.29S11,47.93,11.72,46.81Z"/><path class="cls-2" d="M61.63,51.37c.65-.94,2.3.06,1.23.93S61.08,52.22,61.63,51.37Z"/></g></g></svg>