<svg xmlns="http://www.w3.org/2000/svg" viewBox="0 0 83.74 69.18"><defs><style>.cls-1{fill:#b9825f;}.cls-2{fill:#f2f2d6;}</style></defs><title>Single_BrownRoll</title><g id="Layer_2" data-name="Layer 2"><g id="Layer_1-2" data-name="Layer 1"><path class="cls-1" d="M83.74,38.08a4.11,4.11,0,0,1,0,.42c0,.34,0,.68,0,1s0,.38,0,.56-.07.63-.1.94,0,.33-.06.51c-.07.35-.12.7-.19,1,0,.12,0,.25-.06.37a22.44,22.44,0,0,1-.81,2.9.55.55,0,0,1,0,.09c-.17.45-.34.9-.53,1.35a.8.8,0,0,1,0,.14C77.8,56.94,67.75,64.51,55,67.63a1,1,0,0,1-.29.08h-.14a55,55,0,0,1-12.67,1.46,55.5,55.5,0,0,1-12.54-1.42h-.07l-.66-.16C13.29,63.79,1.93,53.61.23,41.3c0,0,0-.06,0-.1-.06-.49-.13-1-.15-1.48a.11.11,0,0,1,0-.06c0-.51-.05-1-.05-1.56,0-.14,0-.28,0-.42,0-.34,0-.68,0-1s0-.38.05-.56.06-.62.1-.93,0-.34.06-.51c.06-.35.11-.7.19-1,0-.12,0-.25.07-.37.15-.72.32-1.43.55-2.14.07-.25.16-.51.25-.76a.38.38,0,0,1,0-.07c.16-.46.34-.91.52-1.36,0,0,0-.09.05-.14C5.94,19.23,16,11.67,28.77,8.54a1.17,1.17,0,0,1,.29-.08h.14a55.85,55.85,0,0,1,25.21,0h.09c.21,0,.43.1.66.15C68.86,12,79.41,20.52,82.67,31.11a23.62,23.62,0,0,1,.83,3.76.26.26,0,0,1,0,.1,13.59,13.59,0,0,1,.15,1.48.11.11,0,0,1,0,.06c0,.26,0,.53,0,.78S83.74,37.81,83.74,38.08Z"/><path class="cls-1" d="M81.88,40.26c.18-.45.36-.89.52-1.35a.37.37,0,0,1,0-.08,23.85,23.85,0,0,0,.8-2.9c0-.12,0-.25.07-.37.07-.35.12-.69.18-1,0-.17,0-.34.07-.51s.07-.62.1-.93,0-.37,0-.56,0-.67,0-1c0-.14,0-.28,0-.43,0-.52,0-1-.05-1.56a.19.19,0,0,0,0-.06c0-.5-.09-1-.15-1.49a.54.54,0,0,1,0-.1C81.81,15.56,70.45,5.38,55.15,1.58l-.66-.16h-.08a56,56,0,0,0-25.21,0h-.14a1.41,1.41,0,0,0-.29.07C16,4.66,5.94,12.23,1.92,21.79l-.05.13c-.19.45-.36.9-.52,1.35l0,.08a24.33,24.33,0,0,0-.8,2.9l-.07.37c-.07.35-.13.69-.18,1,0,.18,0,.35-.07.51s-.07.62-.1.93,0,.37,0,.56,0,.67,0,1c0,.15,0,.28,0,.43,0,.52,0,1,.06,1.56a.36.36,0,0,0,0,.06c0,.5.09,1,.15,1.49a.8.8,0,0,1,0,.09C1.93,46.62,13.29,56.8,28.6,60.6l.66.16h.09a55.3,55.3,0,0,0,12.53,1.42,55.41,55.41,0,0,0,12.67-1.45l.14,0a1.46,1.46,0,0,0,.28-.07C67.75,57.52,77.8,49.94,81.83,40.4Z"/><circle class="cls-2" cx="67.68" cy="28.42" r="1.94"/><circle class="cls-2" cx="39.02" cy="27.55" r="0.97"/><circle class="cls-2" cx="50.25" cy="14.57" r="2.32"/><circle class="cls-2" cx="31.27" cy="15.93" r="1.84"/><circle class="cls-2" cx="14.9" cy="22.61" r="1.36"/><circle class="cls-2" cx="19.55" cy="27.55" r="0.97"/><circle class="cls-2" cx="8.02" cy="36.27" r="1.65"/><circle class="cls-2" cx="20.52" cy="40.23" r="0.58"/><circle class="cls-2" cx="36.98" cy="37.91" r="1.75"/><path class="cls-2" d="M54.36,41.84a1.79,1.79,0,1,1-1.79-1.79A1.79,1.79,0,0,1,54.36,41.84Z"/><circle class="cls-2" cx="55.77" cy="31.78" r="1.84"/><circle class="cls-2" cx="65.75" cy="36.17" r="1.45"/><circle class="cls-2" cx="61.19" cy="23.97" r="1.74"/><circle class="cls-2" cx="67.2" cy="13.21" r="1.74"/><circle class="cls-2" cx="53.93" cy="6.78" r="1.75"/><circle class="cls-2" cx="77.27" cy="26.48" r="1.65"/><circle class="cls-2" cx="74.17" cy="32.39" r="0.97"/><circle class="cls-2" cx="46.86" cy="34.62" r="1.07"/><circle class="cls-2" cx="29.43" cy="44.84" r="1.55"/><circle class="cls-2" cx="46.86" cy="45.67" r="1.55"/><circle class="cls-2" cx="39.02" cy="48.37" r="1.55"/><circle class="cls-2" cx="27.01" cy="24.84" r="1.64"/><circle class="cls-2" cx="25.36" cy="34.27" r="1.16"/><circle class="cls-2" cx="21.1" cy="13.02" r="2.15"/><circle class="cls-2" cx="34.08" cy="7.79" r="1.94"/><circle class="cls-2" cx="41.87" cy="7.21" r="1.31"/><circle class="cls-2" cx="41.44" cy="15.17" r="0.97"/><circle class="cls-2" cx="45.79" cy="17.77" r="0.97"/><circle class="cls-2" cx="34.08" cy="23.19" r="0.97"/><circle class="cls-2" cx="16.25" cy="33.62" r="0.97"/><circle class="cls-2" cx="22.07" cy="19.32" r="0.97"/><circle class="cls-2" cx="15.87" cy="15.93" r="0.97"/><circle class="cls-2" cx="11.03" cy="17.77" r="0.97"/><circle class="cls-2" cx="27.01" cy="6.78" r="0.97"/><circle class="cls-2" cx="60.22" cy="12.25" r="0.97"/><circle class="cls-2" cx="66.23" cy="20.29" r="0.97"/><circle class="cls-2" cx="73.78" cy="39.65" r="0.97"/><circle class="cls-2" cx="64.3" cy="48.37" r="0.97"/><circle class="cls-2" cx="44.82" cy="51.66" r="0.97"/><circle class="cls-2" cx="30.98" cy="51.66" r="0.97"/><circle class="cls-2" cx="22.07" cy="47.22" r="0.97"/><circle class="cls-2" cx="11.99" cy="27.07" r="0.97"/><circle class="cls-2" cx="60.22" cy="40.05" r="0.97"/><circle class="cls-2" cx="75.14" cy="19.7" r="0.97"/><circle class="cls-2" cx="7.15" cy="25.71" r="1.36"/><circle class="cls-2" cx="48.5" cy="23.19" r="1.74"/></g></g></svg>