<svg xmlns="http://www.w3.org/2000/svg" viewBox="0 0 63.09 47.25"><defs><style>.cls-1{fill:#bac9db;}.cls-2{fill:#2982ba;}.cls-3{fill:#f5f0ee;}</style></defs><title>Single_Tuna</title><g id="Layer_2" data-name="Layer 2"><g id="Layer_1-2" data-name="Layer 1"><rect class="cls-1" y="43.21" width="63.09" height="4.04"/><rect class="cls-2" x="2.36" y="4.04" width="58.36" height="39.17"/><rect class="cls-2" x="31.2" y="4.04" width="29.53" height="39.17"/><rect class="cls-1" width="63.09" height="4.04"/><rect class="cls-1" width="31.4" height="4.04"/><rect class="cls-1" y="43.21" width="31.4" height="4.04"/><path class="cls-3" d="M50.71,27.86H46A14.56,14.56,0,0,0,31.4,13.3l-.2,0V34.07H50.71Z"/><path class="cls-3" d="M16.84,27.86H11.68v6.21H31.2V13.32A14.55,14.55,0,0,0,16.84,27.86Z"/><path class="cls-2" d="M38.93,25.77h0a.3.3,0,0,1,0-.44h0a4.53,4.53,0,0,0,1-2.44l-3.2,1.7a2.57,2.57,0,0,1-.46-.07h0L36,24.19H35.8l-.19-.38h-.15l-.2-.49h-.1l-.23-.44-.12.08-.31-.44-.13.12-.32-.48-.16.11-.28-.42-.14.11-.29-.34-.18.07-.34-.39-.14.11-.34-.36-.18.12-.41-.35-.12.13L31,20.64l-.17.15-.49-.27-.17.18-.48-.28-.16.19-.48-.24-.17.18-.45-.24L27.23,22h0a7.9,7.9,0,0,0-1.55.81,9.3,9.3,0,0,0-2.4,2.33h0l-.05.07a.58.58,0,0,0-.08.18.62.62,0,0,0,0,.13.41.41,0,0,0,0,.16h0a.58.58,0,0,0,.15.25h0l.05.06A10.19,10.19,0,0,0,26,27.93a8.58,8.58,0,0,0,3.83.92,8.26,8.26,0,0,0,3-.57l.55.25a2.43,2.43,0,0,0,1.17-.34c.47-.32.91-1.43,1.29-1.59a2.51,2.51,0,0,1,.9-.14v0L40,28.19A4.53,4.53,0,0,0,38.93,25.77Z"/></g></g></svg>