<svg xmlns="http://www.w3.org/2000/svg" viewBox="0 0 230.4 164.67"><defs><style>.cls-1{opacity:0.7;}.cls-2,.cls-6{fill:#e9f5fd;}.cls-3{fill:#d3ebfb;}.cls-4{fill:#aad8f8;opacity:0.9;}.cls-5{fill:#26afe8;opacity:0.2;}.cls-6{opacity:0.5;}</style></defs><title>Single_Water</title><g id="Layer_2" data-name="Layer 2"><g id="Layer_1-2" data-name="Layer 1"><g class="cls-1"><path class="cls-2" d="M139.53,0q23.34,0,46.68,0c5.73,0,7.26,1.63,7.19,8.35,0,3.3.85,4.63,3.63,5.79C215.74,22,227.64,37.12,230,60.4c2.24,22.06-5.17,39.79-20.57,53a8,8,0,0,0-2.47,4.91A72.78,72.78,0,0,1,189.22,162a8,8,0,0,1-5.56,2.53c-27.62.16-55.24.19-82.85-.05a9,9,0,0,1-6.32-3.68c-15.75-22.49-20.51-47-9.28-74.13C88.5,78.76,92,70.94,95.27,63c1.1-2.63,2-5.4,2.88-8.13,5.28-15.68,2.79-29.4-7.71-41.07-.81-.9-1.9-1.69-2.31-2.81-.86-2.36-2.38-5.39-1.72-7.22S90,.22,92,.19C107.84-.1,123.68,0,139.53,0Zm67.12,101.22c11.59-12.55,16.08-27.32,12.63-44.63-3.06-15.36-11.7-25.36-25.51-31.37Z"/><path class="cls-3" d="M174,49.67a150.54,150.54,0,0,0,18.35-2.52L185.23,5.08h-68c-4.45,0-10.37,0-16.77.07l-10.2.1,6.27,8.05a42.27,42.27,0,0,1,8.65,34.16C128.19,47.1,150.78,51.27,174,49.67Z"/></g><path class="cls-4" d="M174,49.67c-23.23,1.6-45.81-2.56-68.78-2.23a58.33,58.33,0,0,1-2.29,9.08L102.42,58c-.75,2.27-1.53,4.61-2.49,6.91-1.6,3.85-3.3,7.8-4.8,11.29-1.65,3.84-3.52,8.19-5.25,12.37-9.85,23.79-7.14,46.24,8.3,68.65l1.49,2.16,2.63,0c13,.11,26.38.16,40.9.16,12.24,0,25.07,0,39.22-.12h2.38l1.5-1.84A67.22,67.22,0,0,0,201.94,118a11.82,11.82,0,0,1,1-3.85l.58-1.36L192.36,47.15A150.54,150.54,0,0,1,174,49.67Z"/><path class="cls-5" d="M62.26,101l1.73-15H5.83l1.68,14.5C26,100.14,44,101.06,62.26,101Z"/><path class="cls-4" d="M7.51,100.58l6.79,58.59H55.52L62.26,101C44,101.06,26,100.14,7.51,100.58Z"/><polygon class="cls-2" points="63.99 86.07 55.52 159.16 14.31 159.16 5.83 86.07 0 86.07 8.97 163.85 60.85 163.85 69.82 86.07 63.99 86.07"/><path class="cls-2" d="M25.27,162.74a.88.88,0,0,1-.87-.78l-4.12-37.44a.88.88,0,0,1,1.75-.19l4.12,37.44a.88.88,0,0,1-.78,1Z"/><path class="cls-2" d="M44.56,162.74h-.1a.88.88,0,0,1-.78-1l4.12-37.44a.88.88,0,0,1,1.75.19L45.43,162A.88.88,0,0,1,44.56,162.74Z"/><path class="cls-6" d="M166.78,143.14h0a8.33,8.33,0,0,1-8.31-8.31V26.18a8.33,8.33,0,0,1,8.31-8.31h0a8.33,8.33,0,0,1,8.31,8.31l14.14,93C195.16,144,171.35,143.14,166.78,143.14Z"/></g></g></svg>