<svg xmlns="http://www.w3.org/2000/svg" viewBox="0 0 82.86 92.35"><defs><style>.cls-1{fill:#fff;}.cls-2{fill:#01959f;}.cls-3{fill:#bdb6aa;}.cls-4{fill:#e0eef1;}.cls-5{fill:#2fbfc7;}</style></defs><title>Single_Yoghurt</title><g id="Layer_2" data-name="Layer 2"><g id="Layer_1-2" data-name="Layer 1"><polygon class="cls-1" points="4.43 6.46 4.43 13.93 11.57 92.35 41.43 92.35 41.43 6.46 4.43 6.46"/><polygon class="cls-1" points="78.42 6.46 78.42 13.93 71.29 92.35 41.43 92.35 41.43 6.46 78.42 6.46"/><path class="cls-2" d="M67.51,37.17H58.15a18.45,18.45,0,0,0-33.45,0H15.34V52.84H24.7a18.45,18.45,0,0,0,33.45,0h9.36Z"/><rect class="cls-3" x="4.43" y="6.46" width="73.99" height="7.46"/><path class="cls-4" d="M41.43,0H3.27L0,2.12H41.43Z"/><rect class="cls-5" y="2.12" width="41.43" height="7.82"/><path class="cls-4" d="M82.86,2.12,79.59,0H41.43V2.12Z"/><path class="cls-5" d="M82.86,2.12H41.43V9.94L82.66,10l.2-.13Z"/><path class="cls-2" d="M41.43,12H79.59l3.07-2L41.43,9.94Z"/><path class="cls-2" d="M0,9.94c1.28.83,2,1.23,3.27,2.05H41.43V9.94Z"/></g></g></svg>