<svg xmlns="http://www.w3.org/2000/svg" viewBox="0 0 50.91 96.33"><defs><style>.cls-1{isolation:isolate;}.cls-2{fill:#ffe6c9;}.cls-3{fill:#e6b8a1;}.cls-4{fill:#ffa1a1;}.cls-5{fill:#f09e8c;}.cls-6{fill:#ffebdb;}.cls-7{fill:#c77d82;mix-blend-mode:multiply;}.cls-8{fill:#ffefe0;}</style></defs><title>Single_Bacon</title><g class="cls-1"><g id="Layer_2" data-name="Layer 2"><g id="Layer_1-2" data-name="Layer 1"><path class="cls-2" d="M11.72,2.69h0c.46,0,.91,0,1.36-.06h0l.71-.07.36,0c.29,0,.64,0,1-.05h1.66c.92,0,1.92,0,2.86.07l.36,0c.75,0,1.45.08,2.06.13l.54,0h.06l1.2.09.8.06L26,3l.73.06c0,.32,0,.61,0,.92s0,.73-.09,1.08a2.71,2.71,0,0,1,0,.33.35.35,0,0,1,0,.1c0,.14,0,.29-.06.44s-.06.42-.1.64-.1.54-.15.81-.07.36-.11.53-.09.43-.14.64c-.15.67-.33,1.33-.49,2q-.12.46-.22.92a28.66,28.66,0,0,0-.58,3c-.07.54-.12,1.1-.14,1.67a10,10,0,0,0,0,1c0,.22,0,.46,0,.69s0,.26,0,.39a2.31,2.31,0,0,0,0,.26v0c.12,1,.32,2.07.55,3.19.1.53.22,1.09.34,1.64,0,.13.06.25.08.38s.06.31.1.46,0,.22.07.33,0,.14,0,.21,0,.21.06.31c.06.29.13.57.18.86.24,1.14.46,2.29.63,3.42a25.86,25.86,0,0,1,.27,2.74c0,.5,0,1,0,1.48s-.06,1-.09,1.55c0,.21,0,.41,0,.63-.08,1.05-.18,2.14-.29,3.24a.09.09,0,0,1,0,0c0,.1,0,.21,0,.31,0,.43-.08.85-.13,1.28-.07.69-.14,1.39-.21,2.08,0,.39-.08.77-.12,1.16s-.07.71-.11,1.07v0c-.07.72-.13,1.43-.19,2.13,0,.26,0,.52-.05.78s0,.47,0,.7,0,.58,0,.86,0,.43,0,.64,0,.38,0,.57,0,.59,0,.87c0,.61,0,1.24,0,1.9,0,0,0,.09,0,.14,0,.35,0,.71,0,1.06s0,.52,0,.79,0,.54,0,.82,0,.81.08,1.22,0,.68.07,1,0,.68.07,1,0,.39,0,.59.05.65.07,1c.09,1.28.18,2.5.25,3.62,0,.26,0,.51,0,.75s0,.62,0,.91c0,.12,0,.25,0,.37,0,.3,0,.59,0,.86s0,.24,0,.36,0,.25,0,.38,0,.23,0,.34,0,.3,0,.45,0,.31,0,.48,0,.3,0,.45-.06.51-.08.79c-.07.58-.15,1.19-.24,1.82-.35,2.49-.81,5.18-1.1,7.32,0,.15,0,.29-.06.43-.09.71-.16,1.34-.19,1.87,0,.79,0,1.84,0,3,0,.22,0,.44,0,.66s0,.34,0,.52c0,.5,0,1,0,1.52h0c0,.21,0,.41,0,.61s0,.24,0,.35,0,.12,0,.18c0,.34,0,.69,0,1s0,.67,0,1c0,.56.06,1.07.08,1.51,0,.12,0,.23,0,.34s0,.26,0,.38,0,.14,0,.21c0,.26,0,.47,0,.61s0,.22,0,.22h-.31l-1.21,0h-.75l-.63,0h0l-.6,0-2.3-.15-1.92-.14L15,93.87l-.68-.06-1.26-.13h0l-.5,0-.74-.07L11,93.49c-.86-.07-1.68-.1-2.45-.11a31.64,31.64,0,0,0-5.87.48c-.7.13-1.08.22-1.08.22V1.9s.75.13,1.93.27,2.59.31,4.19.42C9,2.67,10.41,2.72,11.72,2.69Z"/><path class="cls-3" d="M3.57,1.79c0,1.8-.22,6.31-.47,11.52-.32,6.55-.69,14-.69,17.65,0,3.29.3,9.7.59,15.91s.57,12.44.57,15.66c0,2.64-.19,7.67-.4,13-.29,7.55-.63,16.11-.43,18.84l-2.4.17c-.21-2.86.11-11.12.42-19.1.2-5.3.4-10.31.4-12.9C1.16,59.37.87,53.07.59,47S0,34.31,0,31C0,27.24.37,19.78.69,13.2c.24-5,.47-9.67.47-11.41Z"/><path class="cls-4" d="M25.82,31.92a4.16,4.16,0,0,1,1.24.18c0,.5,0,1,0,1.48,0,.27,0,.54,0,.83s0,.32,0,.47,0,.17,0,.25,0,.41,0,.63,0,.3,0,.47,0,.45-.06.68c-.06.69-.13,1.38-.19,2.09a.09.09,0,0,1,0,0c0,.1,0,.21,0,.31,0,.43-.08.85-.13,1.28-.07.69-.14,1.39-.21,2.08,0,.39-.08.77-.12,1.16s-.07.71-.11,1.07v0c-.07.72-.13,1.43-.19,2.13,0,.26,0,.52-.05.78s0,.47,0,.7,0,.58,0,.86,0,.43,0,.64,0,.38,0,.57,0,.59,0,.87c0,.61,0,1.24,0,1.9,0,0,0,.09,0,.14,0,.35,0,.71,0,1.06s0,.52,0,.79,0,.54,0,.82,0,.81.08,1.22,0,.68.07,1,0,.68.07,1,0,.39,0,.59.05.65.07,1c.09,1.28.18,2.5.25,3.62,0,.26,0,.51,0,.75s0,.62,0,.91c0,.12,0,.25,0,.37,0,.3,0,.59,0,.86s0,.24,0,.36,0,.25,0,.38,0,.23,0,.34,0,.3,0,.45,0,.31,0,.48,0,.3,0,.45-.06.51-.08.79c-.07.58-.15,1.19-.24,1.82-.35,2.49-.81,5.18-1.1,7.32,0,.15,0,.29-.06.43-.09.71-.16,1.34-.19,1.87,0,.79,0,1.84,0,3,0,.22,0,.44,0,.66s0,.34,0,.52c0,.5,0,1,0,1.52h0c0,.21,0,.41,0,.61s0,.24,0,.35,0,.12,0,.18c0,.69.05,1.37.09,2s.06,1.07.08,1.51c0,.12,0,.23,0,.34s0,.26,0,.38,0,.14,0,.21c0,.26,0,.47,0,.61s0,.22,0,.22h-.31l-1.21,0h-.75l-.63,0h0l-.6,0V36.23A4.18,4.18,0,0,1,21.71,35a4.24,4.24,0,0,1,1-1.74l.12-.12a4.17,4.17,0,0,1,1.88-1.05A3.9,3.9,0,0,1,25.82,31.92Z"/><path class="cls-4" d="M22.73,2.75l4,.32c0,5-2,8.54-2.17,13.12-.11,3.49,1.53,8.5,2.2,13.18l-.36,0a3.7,3.7,0,0,1-3.7-3.69Z"/><path class="cls-4" d="M21.82,85.32a2.11,2.11,0,0,0,2.11-2.11V47.91a2.11,2.11,0,0,0-2.11-2.11h0a2.11,2.11,0,0,0-2.11,2.11v35.3a2.11,2.11,0,0,0,2.11,2.11Z"/><path class="cls-4" d="M15.18,57.11a2.11,2.11,0,0,1,2.12,2.11V94.06c-.92-.07-1.91-.15-2.94-.25l-1.28-.12V59.22A2.11,2.11,0,0,1,15.18,57.11Z"/><path class="cls-4" d="M16.44,2.46h.4c.92,0,1.92,0,2.87.07V42.48a2.26,2.26,0,0,1-2.26,2.26,2.23,2.23,0,0,1-1.6-.66,2.26,2.26,0,0,1-.67-1.6v-40Z"/><path class="cls-5" d="M11.21,18.13a1.58,1.58,0,0,1,1.58,1.58V50.4A1.58,1.58,0,0,1,11.21,52h0A1.58,1.58,0,0,1,9.63,50.4V19.71a1.58,1.58,0,0,1,1.58-1.58Z"/><path class="cls-4" d="M16.44,2.46h.4V12.56a1.87,1.87,0,0,1-1.66,1.86l-.22,0a1.89,1.89,0,0,1-1.89-1.88V2.63l.73-.07c.37,0,.84-.07,1.38-.09Z"/><path class="cls-5" d="M12.7,77.49a1.31,1.31,0,0,1,.38.05h0a1.63,1.63,0,0,1,1.26,1.59V93.81l-1.26-.13h0l-.5,0-.74-.07L11,93.49V79.15a1.63,1.63,0,0,1,.79-1.4h0A1.63,1.63,0,0,1,12.7,77.49Z"/><path class="cls-4" d="M25.27,21.75c.5,2.44,1.15,5.08,1.52,7.61a27.42,27.42,0,0,1,.26,2.74c0,.5,0,1,0,1.48-.07,1.7-.23,3.54-.42,5.42H26.5a3.77,3.77,0,0,1-3.77-3.77V25.32a3.76,3.76,0,0,1,2.55-3.57Z"/><path class="cls-6" d="M35,1.11l1.87.06s-.56,8.86-.36,12.33,1.84,11.1,1.84,14.94-.87,11-.87,16.31c0,.2,0,.4,0,.6s0,.34,0,.51,0,.38,0,.58,0,.39,0,.59c.11,2.23.35,4.68.6,7.15.06.55.11,1.1.17,1.65,0,.1,0,.19,0,.29,0,.46.09.91.14,1.37s.1,1,.14,1.43c0,.25,0,.5.07.74,0,.46.06.91.1,1.35,0,.22,0,.45,0,.68s0,.32,0,.48,0,.57,0,.84c0,.49,0,1,0,1.51,0,.9-.14,1.84-.27,2.78,0,.32-.09.64-.15,1l0,.1c-.07.4-.14.8-.22,1.2l-.13.67c-.21,1.06-.45,2.12-.67,3.15,0,.16-.07.32-.1.48s-.06.25-.08.37l-.17.81c-.12.56-.22,1.11-.32,1.65,0,.25-.09.5-.13.73-.07.46-.12.9-.17,1.33a3.93,3.93,0,0,0,0,.43,12.55,12.55,0,0,0-.05,1.53C36.59,85.35,38.64,89,38.64,94l-4.09.32-.62,0c-.71.06-1.56.12-2.45.16s-2,.08-2.91.08H26.87c-.55,0-1,0-1.41-.09l-.74-.07-1.21-.06h-.75c-1.18,0-2.39,0-3.55.13-1.59.11-3.06.27-4.17.41s-2,.28-2,.28V1.45s.39.1,1.1.23a32.56,32.56,0,0,0,5.89.48c.81,0,1.67,0,2.58-.1l.8-.07.5-.05.76-.07L26,1.74c1.06-.1,2.06-.19,3-.25,1.75-.14,3.24-.23,4.3-.3l.61,0h0Z"/><path class="cls-3" d="M11.78,1l2.44.18c0,.15,0,.33,0,.51s0,.53,0,.85c0,2.58.09,7.07.26,11.84.07,2,.15,4,.22,6,.21,5.41.41,10.53.41,13.22,0,3.28-.3,9.72-.59,15.93-.13,2.69-.25,5.42-.36,7.93h0c-.14,3.37-.23,6.33-.23,8.25,0,3.73.37,11.29.7,18,.21,4.22.39,8,.45,10.26,0,.41,0,.77,0,1.08,0,.14,0,.27,0,.39H12.61c0-.16,0-.35,0-.56s0-.7,0-1.13c0-.05,0-.1,0-.15,0-.29,0-.6,0-.93,0-.11,0-.24,0-.36s0-.36,0-.54,0-.37,0-.56,0-.34,0-.52c-.06-1.21-.12-2.57-.19-4q-.07-1.4-.14-2.86c0-.83-.08-1.68-.13-2.54s-.08-1.72-.12-2.57c0-.29,0-.58,0-.87-.22-4.82-.41-9.41-.41-12.09,0-.8,0-1.77.05-2.86,0-.37,0-.75,0-1.15s0-.64,0-1c.09-2.63.22-5.71.37-8.86,0-.81.07-1.63.11-2.45.18-3.87.37-7.82.48-11,0-.32,0-.63,0-.94s0-.75,0-1.1,0-.69,0-1c0-.65,0-1.22,0-1.73s0-1.27,0-2.06c0-.11,0-.22,0-.34,0-1.17-.07-2.52-.12-4,0-.88-.06-1.81-.1-2.77,0-.64,0-1.29-.07-1.95s-.06-1.34-.08-2-.05-1.33-.08-2c0-1.11-.08-2.22-.12-3.3,0-.39,0-.77,0-1.15,0-1-.06-1.9-.09-2.81,0-.36,0-.71,0-1.06v0c0-.35,0-.69,0-1,0-.18,0-.35,0-.52,0-.33,0-.65,0-1v0c0-.33,0-.65,0-1,0-.48,0-.95,0-1.38s0-.61,0-.89q0-.89,0-1.61c0-.28,0-.54,0-.78S11.76,1.26,11.78,1Z"/><path class="cls-4" d="M37.69,64.69a4.23,4.23,0,0,0,1.26-.18c0-.51,0-1,0-1.5-.26-5.73-1.44-12.94-1.44-18.26s.87-12.48.87-16.31S36.74,17,36.54,13.49s.36-12.33.36-12.33L35,1.11,34,1.16h0l-.61,0V60.31A4.38,4.38,0,0,0,37.69,64.69Z"/><path class="cls-4" d="M34.54,94.36,38.64,94c0-5.06-2-8.69-2.2-13.35C36.32,77.15,38,72,38.67,67.29l-.37,0A3.76,3.76,0,0,0,34.54,71Z"/><path class="cls-4" d="M33.62,10.37a2.15,2.15,0,0,1,2.14,2.15v35.9a2.15,2.15,0,0,1-2.14,2.15h0a2.15,2.15,0,0,1-2.15-2.15V12.52a2.15,2.15,0,0,1,2.15-2.15Z"/><path class="cls-4" d="M26.87,39.07A2.15,2.15,0,0,0,29,36.92V1.48l-3,.25-1.3.12V36.92A2.15,2.15,0,0,0,26.87,39.07Z"/><path class="cls-4" d="M28.15,94.65h.41c.94,0,1.95,0,2.91-.08V53.95a2.3,2.3,0,0,0-4.6,0V94.63Z"/><path class="cls-5" d="M23.62,85.5a2.4,2.4,0,0,0,2.4-2.4V36.43a2.4,2.4,0,0,0-2.4-2.4h0a2.4,2.4,0,0,0-2.41,2.4V83.09a2.4,2.4,0,0,0,2.41,2.4Z"/><path class="cls-4" d="M28.15,94.65h.41V84.38a1.9,1.9,0,0,0-1.69-1.9l-.23,0a1.92,1.92,0,0,0-1.92,1.92v10.1l.74.07c.38,0,.86.07,1.41.09Z"/><path class="cls-5" d="M26,1.74V16.65a1.65,1.65,0,0,1-1.3,1.62h0a1.28,1.28,0,0,1-.35,0,1.68,1.68,0,0,1-1.13-.43,1.66,1.66,0,0,1-.49-.78,1.62,1.62,0,0,1-.06-.46V2.06l.8-.07.5-.05.76-.07Z"/><path class="cls-4" d="M37.13,75c.51-2.48,1.17-5.16,1.54-7.74.13-.94.24-1.88.27-2.79,0-.51,0-1,0-1.5-.08-1.73-.24-3.6-.43-5.52h-.14a3.84,3.84,0,0,0-3.84,3.84V71.4a3.83,3.83,0,0,0,1.12,2.71A3.79,3.79,0,0,0,37.13,75Z"/><path class="cls-7" d="M11.73,1.91c0,.24,0,.5,0,.78,0,.49,0,1,0,1.61,0,.29,0,.58,0,.89s0,.9,0,1.38c0,.32,0,.64,0,1v0c0,.32,0,.64,0,1,0,.17,0,.34,0,.52,0,.34,0,.68,0,1v0c0,.35,0,.7,0,1.06,0,.91.06,1.85.09,2.81,0,.38,0,.76,0,1.15,0,1.08.08,2.2.12,3.3,0,.67.06,1.34.08,2s.05,1.34.08,2,.05,1.31.07,1.95c0,1,.07,1.89.1,2.77,0,1.47.09,2.82.12,4,0,.12,0,.23,0,.34,0,.79,0,1.49,0,2.06s0,1.08,0,1.73c0,.33,0,.67,0,1s0,.72,0,1.1,0,.62,0,.94c-.11,3.21-.29,7.16-.48,11,0,.81-.07,1.63-.11,2.45-.15,3.15-.28,6.24-.37,8.86,0,.33,0,.66,0,1s0,.78,0,1.15c0,1.1,0,2.07,0,2.86,0,2.68.19,7.26.41,12.08,0,.29,0,.59,0,.88,0,.85.08,1.72.12,2.57s.09,1.71.13,2.54.1,1.93.14,2.86c.07,1.42.14,2.78.19,4,0,.18,0,.35,0,.52s0,.38,0,.56,0,.36,0,.54,0,.24,0,.36c0,.33,0,.65,0,.93,0,.05,0,.1,0,.15l-.74-.07L11,93.49c-.86-.07-1.68-.1-2.45-.11-.07-2.33-.25-5.91-.44-9.66-.32-6.69-.7-14.28-.7-18.07,0-3.4.31-10,.6-16.29s.59-12.59.59-15.82c0-2.64-.21-7.73-.42-13.12-.27-7-.54-14.09-.48-17.84,1.29.09,2.66.14,4,.11C11.72,2.41,11.72,2.15,11.73,1.91Z"/><path class="cls-7" d="M24,1.93c0,.28,0,.59,0,.91-.09,2.36-.25,5.62-.42,9-.09,2-.19,4-.29,6S23,22.13,23,24h0c0,.92-.07,1.78-.1,2.59h0c0,1.41-.06,2.65-.06,3.65,0,.79,0,1.74,0,2.82,0,.33,0,.67,0,1,0,.75,0,1.54.09,2.37h0c.11,3,.27,6.5.43,10,0,.15,0,.3,0,.45.21,4.54.42,9.2.53,12.67,0,1.36.06,2.55.06,3.48s0,2.15-.06,3.58c-.07,2.72-.21,6.21-.35,9.82-.1,2.79-.22,5.61-.31,8.24h0c0,.24,0,.49,0,.73-.11,3.58-.19,6.77-.16,8.94h-.32c-1.18,0-2.39,0-3.55.13v-.12c0-.07,0-.15,0-.23,0-3.9.22-10.81.49-17.55,0-.05,0-.1,0-.15.21-5.51.41-10.71.41-13.4s-.19-7.31-.42-12.3c-.06-1.27-.11-2.56-.17-3.85-.05-1.1-.1-2.21-.15-3.3-.25-5.35-.46-10.45-.46-13.33,0-3.87.38-11.62.72-18.45,0-.48,0-1,.07-1.42.15-3,.29-5.81.36-7.86,0-.14,0-.27,0-.4.81,0,1.67,0,2.58-.1l.8-.07Z"/><path class="cls-8" d="M38.56.72c.4,0,.84,0,1.3,0h.42c1,0,2,0,3,.08s1.78.1,2.51.16L46.4,1l4.18.33c0,5.17-2.09,8.87-2.25,13.63A26.18,26.18,0,0,0,49,20.73c.52,2.53,1.19,5.27,1.57,7.9a28.11,28.11,0,0,1,.28,2.85c0,.52,0,1,0,1.53-.08,1.77-.25,3.68-.44,5.63-.45,4.5-1,9.23-1,13,0,5.43.89,12.74.89,16.66S48.64,80,48.43,83.57s.36,12.59.36,12.59l-1.9.06-1.1-.06h0l-.63,0c-1.08-.07-2.59-.17-4.39-.3-1-.07-2-.16-3.06-.26l-1.32-.13-1.28-.13-.82-.07a32.08,32.08,0,0,0-9.77.62V.11A61.68,61.68,0,0,0,36.37.88l.76-.07C37.51.76,38,.73,38.56.72Z"/><path class="cls-3" d="M26.5,0c0,1.87-.23,6.55-.49,12-.34,6.81-.71,14.52-.71,18.33,0,3.42.3,10.08.6,16.52s.6,12.91.6,16.26c0,2.75-.2,8-.41,13.5-.3,7.84-.65,16.73-.44,19.56l-2.5.18c-.21-3,.12-11.55.44-19.84C23.8,71,24,65.78,24,63.09c0-3.29-.3-9.82-.59-16.14-.3-6.47-.61-13.17-.61-16.64,0-3.87.38-11.62.72-18.45C23.76,6.69,24,1.81,24,0Z"/><path class="cls-4" d="M49.61,31.29a4.39,4.39,0,0,1,1.28.19c0,.52,0,1,0,1.53-.26,5.85-1.47,13.21-1.47,18.64s.89,12.74.89,16.66S48.64,80,48.43,83.57s.36,12.59.36,12.59l-1.9.06-1.1-.06h0l-.63,0V35.76A4.47,4.47,0,0,1,49.61,31.29Z"/><path class="cls-4" d="M46.4,1l4.18.33c0,5.17-2.09,8.87-2.25,13.63-.12,3.62,1.59,8.83,2.29,13.68l-.37,0a3.84,3.84,0,0,1-3.84-3.84Z"/><path class="cls-4" d="M45.83,88.43A2.19,2.19,0,0,0,48,86.23V49.57a2.19,2.19,0,0,0-2.19-2.2h0a2.2,2.2,0,0,0-2.19,2.2V86.23a2.2,2.2,0,0,0,2.19,2.2Z"/><path class="cls-4" d="M38.56,57.46a2.19,2.19,0,0,1,2.19,2.19V95.83c-1-.07-2-.16-3.06-.26l-1.32-.13V59.65A2.19,2.19,0,0,1,38.56,57.46Z"/><path class="cls-4" d="M39.87.7h.42c1,0,2,0,3,.08V42.26a2.35,2.35,0,1,1-4.7,0V.72C39,.7,39.4.7,39.87.7Z"/><path class="cls-4" d="M34.54,20.52A1.48,1.48,0,0,1,36,22V50.65a1.48,1.48,0,0,1-1.48,1.48h0a1.47,1.47,0,0,1-1.47-1.48V22a1.47,1.47,0,0,1,1.47-1.48Z"/><path class="cls-4" d="M39.87.7h.42V11.19a1.94,1.94,0,0,1-1.72,1.93l-.23,0a2,2,0,0,1-2-2V.88l.76-.07c.38,0,.87-.07,1.43-.09C39,.7,39.4.7,39.87.7Z"/><path class="cls-4" d="M36,78.63a1.37,1.37,0,0,1,.39,0,1.69,1.69,0,0,1,1.32,1.66V95.57l-1.32-.13-1.28-.13-.82-.07V80.34A1.71,1.71,0,0,1,36,78.63Z"/><path class="cls-4" d="M49,20.73c.52,2.53,1.19,5.27,1.57,7.9a28.11,28.11,0,0,1,.28,2.85c0,.52,0,1,0,1.53-.08,1.77-.25,3.68-.44,5.63h-.14a3.92,3.92,0,0,1-3.92-3.92V24.44A3.9,3.9,0,0,1,49,20.73Z"/></g></g></g></svg>