<svg xmlns="http://www.w3.org/2000/svg" viewBox="0 0 104.21 109.19"><defs><style>.cls-1{fill:#ffcf17;}.cls-2{fill:#f8ac00;}.cls-3{fill:#273e45;}.cls-4{fill:#90a82a;}.cls-5{fill:#9eb53c;}.cls-6{fill:#7f4b21;}.cls-7{fill:#99623d;}.cls-8{fill:#73b017;}</style></defs><title>Single_Banana</title><g id="Layer_2" data-name="Layer 2"><g id="Layer_1-2" data-name="Layer 1"><path class="cls-1" d="M.05,53.6c-.45,1.74,2,11.26,13.23,18.21a46.53,46.53,0,0,0,48.19.42A47.09,47.09,0,0,0,85.83,29.91c-.24-9.2-3.67-15.32-6.36-18.19-1-.36-2.56.61-4.74.16-.13.64-.33,1.46-.72,3-2.17,8.87-5,27.45-23.66,37.87C25.92,67.69.67,50.36.05,53.6Z"/><path class="cls-2" d="M29.21,68.41a42.17,42.17,0,0,0,25-6.08C72.93,51.9,78.74,33.1,78.67,25a47.23,47.23,0,0,0-1.44-13.15l.25-.05a3.92,3.92,0,0,1,2-.11c2.68,2.84,6.14,9,6.34,18.17A47,47,0,0,1,61.45,72.2a46.55,46.55,0,0,1-48.18-.41C2,64.82-.4,55.32.05,53.57.42,51.47,8.54,67.24,29.21,68.41Z"/><path class="cls-3" d="M2,53.37c.09.17-.34.11-.6.3s-.09.31-.46.54-.26,0-.56.2c-.12.1-.26.44-.34.3a4.11,4.11,0,0,1,0-1.11C.16,53.11.79,53.08,2,53.37Z"/><path class="cls-4" d="M73.11.23C71.69,1,70.86,2,71.4,3.6l4.13,12.82a2.91,2.91,0,0,0,3.63,1.78,3,3,0,0,0,1.57-3.79L76.08,2C75.53.47,74.4-.46,73.11.23Z"/><path class="cls-5" d="M79.09,18.2a2.88,2.88,0,0,1-3.56-1.77L71.4,3.6C70.86,2,71.69,1,73.11.23c0,0,.06,0,.08,0Z"/><path class="cls-1" d="M5.16,73.59c0,2,5.25,11.41,19.12,15.67,13.15,4.37,34.93,3.59,51.36-12.94C92.64,60.32,94,38,89.79,24.54,87,14.83,81.63,9.26,78,7c-1.12-.13-2.56,1.34-5,1.49,0,.7.06,1.63.08,3.38.17,10,2.36,30.6-14.65,46.86C36.58,81.38,4.91,70,5.16,73.59Z"/><path class="cls-2" d="M40.27,81.23A46.45,46.45,0,0,0,65.2,67.8c17-16.28,18-37.9,15.64-46.49A52.16,52.16,0,0,0,75.64,7.75l.23-.14a4.72,4.72,0,0,1,2.07-.67c3.66,2.29,9,7.88,11.81,17.58C94,38,92.62,60.31,75.63,76.31,59.2,92.82,37.41,93.62,24.27,89.24,10.39,85,5.15,75.55,5.14,73.56,5,71.22,18,85.73,40.27,81.23Z"/><path class="cls-3" d="M7.16,72.8c.15.16-.36.2-.55.47s0,.37-.37.7-.27.07-.51.39c-.11.14-.15.52-.27.4a3.65,3.65,0,0,1-.3-1.16C5.12,73,5.79,72.82,7.16,72.8Z"/><path class="cls-6" d="M73.11.23a1.83,1.83,0,0,1,2.51.85,7.66,7.66,0,0,0-4.37,1.81C71.14,1.84,71.69,1,73.11.23Z"/><path class="cls-7" d="M73.64,1.51a8.21,8.21,0,0,0-2.4,1.38c-.1-1,.44-1.92,1.86-2.66a.29.29,0,0,1,.12-.05Z"/><path class="cls-8" d="M73.51.52c-1.4,1.18-2,2.51-1.06,4.08l7.5,13a3.21,3.21,0,0,0,4.37,1.07,3.31,3.31,0,0,0,.83-4.5l-8-12.34C76.19.25,74.72-.51,73.51.52Z"/><path class="cls-5" d="M84.25,18.71A3.22,3.22,0,0,1,80,17.59l-7.5-13C71.48,3,72.11,1.7,73.51.52l.07,0Z"/><path class="cls-1" d="M16.84,96.38c.48,2.14,8.41,11.17,24.52,12.55,15.33,1.65,38.85-4.32,52.84-26.18,14.71-21.42,10.93-46,3.17-59.68C92,13.17,84.9,8.35,80.39,6.73c-1.25.13-2.47,2.07-5.08,2.8.19.76.43,1.77.87,3.66,2.55,10.89,9.76,32.72-4.9,54.43C52.87,97.46,15.72,92.49,16.84,96.38Z"/><path class="cls-2" d="M56.85,96.42a51.62,51.62,0,0,0,24-20.49c14.66-21.71,10.61-45.46,6.05-54.26A58.49,58.49,0,0,0,78,8.13l.23-.2a5.1,5.1,0,0,1,2.1-1.22c4.52,1.63,11.66,6.43,17,16.34,7.74,13.68,11.54,38.26-3.17,59.67-14,21.85-37.5,27.85-52.85,26.2-16.12-1.39-24-10.41-24.5-12.56C16.08,93.83,33.65,106.55,56.85,96.42Z"/><path class="cls-3" d="M18.84,95.06c.21.12-.32.29-.5.64s.08.4-.22.84c-.19.28-.28.14-.47.55-.08.16,0,.61-.21.49a4,4,0,0,1-.6-1.21C16.68,95.78,17.36,95.39,18.84,95.06Z"/><path class="cls-6" d="M73.51.52a2,2,0,0,1,2.92.36,8.69,8.69,0,0,0-4.35,3C71.73,2.76,72.11,1.7,73.51.52Z"/><path class="cls-7" d="M74.39,1.82a9,9,0,0,0-2.3,2c-.36-1.1,0-2.17,1.42-3.34a.26.26,0,0,1,.09-.06Z"/></g></g></svg>