<svg xmlns="http://www.w3.org/2000/svg" viewBox="0 0 106.17 98.13"><defs><style>.cls-1{isolation:isolate;}.cls-2{fill:#aacb64;}.cls-3{mix-blend-mode:multiply;}.cls-4{fill:#e3e6d9;}.cls-5{fill:#4d935c;}.cls-6{opacity:0.34;}</style></defs><title>Single_Broccoli</title><g class="cls-1"><g id="Layer_2" data-name="Layer 2"><g id="Layer_1-2" data-name="Layer 1"><path class="cls-2" d="M53.09,26.49l-38.75,19c12.08,5.19,27,14.43,27,27.17v25.5H64.82V72.63c0-12.74,14.94-22,27-27.17ZM41.35,49.64,35.63,45l5.72-3.86Zm23.47,0V41.17L70.53,45Z"/><g class="cls-3"><path class="cls-4" d="M53.09,26.49l-38.75,19c6.52,2.82,13.89,6.8,19.28,11.9A45.4,45.4,0,0,1,73,57c5.35-4.89,12.5-8.76,18.86-11.49ZM41.35,49.64,35.63,45l5.72-3.86Zm23.47,0V41.17L70.53,45Z"/></g><circle class="cls-5" cx="53.09" cy="23.48" r="23.48"/><circle class="cls-5" cx="77.49" cy="27.76" r="19.21"/><circle class="cls-5" cx="91.83" cy="35.81" r="14.34"/><circle class="cls-5" cx="14.34" cy="35.81" r="14.34"/><path class="cls-5" d="M47.89,27.76a19.21,19.21,0,1,1-19.2-19.2A19.21,19.21,0,0,1,47.89,27.76Z"/><g class="cls-6"><circle class="cls-2" cx="51.7" cy="10.23" r="2.01"/><circle class="cls-2" cx="60.25" cy="16.15" r="1.54"/><circle class="cls-2" cx="44.15" cy="28.48" r="1.64"/><circle class="cls-2" cx="21.63" cy="19.71" r="1.76"/><path class="cls-2" d="M34.59,33A1.64,1.64,0,1,1,33,31.36,1.63,1.63,0,0,1,34.59,33Z"/><circle class="cls-2" cx="7.05" cy="36.77" r="2.01"/><path class="cls-2" d="M15.73,36.77a1.38,1.38,0,1,1-1.39-1.38A1.39,1.39,0,0,1,15.73,36.77Z"/><path class="cls-2" d="M75.23,17.28a1.51,1.51,0,1,1-1.51-1.52A1.51,1.51,0,0,1,75.23,17.28Z"/><circle class="cls-2" cx="62.77" cy="26.84" r="1.26"/><path class="cls-2" d="M28.68,20.8a1.26,1.26,0,1,1-1.26-1.26A1.26,1.26,0,0,1,28.68,20.8Z"/><circle class="cls-2" cx="73.71" cy="34.26" r="1.26"/><circle class="cls-2" cx="79.12" cy="14.6" r="1.26"/><circle class="cls-2" cx="80.76" cy="31.36" r="1.64"/><circle class="cls-2" cx="95.85" cy="26.84" r="1.64"/><circle class="cls-2" cx="95.1" cy="40.92" r="1.59"/><circle class="cls-2" cx="100.63" cy="33" r="1.26"/></g></g></g></g></svg>